<svg width="188" height="36" viewBox="0 0 188 36" fill="none" xmlns="http://www.w3.org/2000/svg">
<g filter="url(#filter0_d_9_217)">
<rect x="4.5" y="0.5" width="39.2556" height="26.6038" rx="5.5" fill="white" stroke="#D9D9D9"/>
<path fill-rule="evenodd" clip-rule="evenodd" d="M16.2207 18.6996H13.782L11.9532 11.7229C11.8664 11.4019 11.6821 11.1182 11.411 10.9845C10.7345 10.6485 9.98896 10.381 9.17566 10.2461V9.97752H13.1042C13.6464 9.97752 14.0531 10.381 14.1209 10.8496L15.0697 15.8822L17.5072 9.97752H19.8782L16.2207 18.6996ZM21.2336 18.6996H18.9305L20.827 9.97752H23.1302L21.2336 18.6996ZM26.1099 12.3938C26.1777 11.924 26.5843 11.6554 27.0587 11.6554C27.8043 11.588 28.6164 11.7229 29.2941 12.0578L29.7008 10.1799C29.023 9.91125 28.2775 9.77637 27.6009 9.77637C25.3655 9.77637 23.7389 10.9845 23.7389 12.6612C23.7389 13.9368 24.8911 14.6066 25.7044 15.0101C26.5843 15.4124 26.9232 15.681 26.8554 16.0833C26.8554 16.6868 26.1777 16.9554 25.5011 16.9554C24.6878 16.9554 23.8745 16.7543 23.1302 16.4182L22.7235 18.2973C23.5368 18.6322 24.4167 18.767 25.23 18.767C27.7365 18.8333 29.2941 17.6263 29.2941 15.8147C29.2941 13.5333 26.1099 13.3996 26.1099 12.3938ZM37.3546 18.6996L35.5258 9.97752H33.5616C33.1549 9.97752 32.7483 10.2461 32.6127 10.6485L29.2263 18.6996H31.5973L32.0705 17.4252H34.9836L35.2547 18.6996H37.3546ZM33.9004 12.3264L34.577 15.6136H32.6805L33.9004 12.3264Z" fill="#172B85"/>
<rect x="97.663" y="0.5" width="39.2556" height="26.6038" rx="5.5" fill="#1F72CD" stroke="#D9D9D9"/>
<path fill-rule="evenodd" clip-rule="evenodd" d="M104.38 9.77637L100.613 18.1113H105.122L105.681 16.7823H106.959L107.518 18.1113H112.481V17.097L112.923 18.1113H115.49L115.933 17.0756V18.1113H126.255L127.51 16.8169L128.685 18.1113L133.986 18.122L130.208 13.9671L133.986 9.77637H128.767L127.545 11.0469L126.407 9.77637H115.178L114.214 11.9277L113.227 9.77637H108.728V10.7561L108.227 9.77637H104.38ZM119.793 10.9599H125.721L127.533 12.9182L129.405 10.9599H131.218L128.463 13.9659L131.218 16.9373H129.322L127.51 14.9563L125.629 16.9373H119.793V10.9599ZM121.257 13.2901V12.1983V12.1972H124.955L126.569 13.9433L124.884 15.6989H121.257V14.507H124.491V13.2901H121.257ZM105.252 10.9599H107.45L109.948 16.6119V10.9599H112.356L114.286 15.0124L116.064 10.9599H118.46V16.9408H117.002L116.99 12.2542L114.865 16.9408H113.561L111.424 12.2542V16.9408H108.425L107.857 15.6H104.785L104.218 16.9396H102.611L105.252 10.9599ZM105.309 14.3604L106.321 11.9719L107.332 14.3604H105.309Z" fill="white"/>
<rect x="144.244" y="0.5" width="39.2556" height="26.6038" rx="5.5" fill="white" stroke="#D9D9D9"/>
<path d="M160.691 27.0294L183.407 20.416V22.0294C183.407 24.7909 181.168 27.0294 178.407 27.0294H160.691Z" fill="#FD6020"/>
<path fill-rule="evenodd" clip-rule="evenodd" d="M179.095 11.0543C180.345 11.0543 181.032 11.6104 181.032 12.6609C181.095 13.4642 180.532 14.144 179.783 14.2676L181.47 16.554H180.157L178.72 14.3294H178.595V16.554H177.533V11.0543H179.095ZM178.595 13.5878H178.908C179.595 13.5878 179.907 13.2789 179.907 12.7227C179.907 12.2283 179.595 11.9194 178.908 11.9194H178.595V13.5878ZM173.846 16.554H176.846V15.627H174.909V14.144H176.783V13.2171H174.909V11.9812H176.846V11.0543H173.846V16.554ZM170.722 14.7619L169.285 11.0543H168.16L170.472 16.6776H171.035L173.346 11.0543H172.222L170.722 14.7619ZM158.038 13.835C158.038 15.3799 159.287 16.6776 160.849 16.6776C161.349 16.6776 161.787 16.554 162.224 16.3686V15.1327C161.912 15.5035 161.474 15.7506 160.974 15.7506C159.975 15.7506 159.162 15.0091 159.162 14.0204V13.8968C159.1 12.9081 159.912 12.043 160.912 11.9812C161.412 11.9812 161.912 12.2283 162.224 12.5991V11.3632C161.849 11.116 161.349 11.0543 160.912 11.0543C159.287 10.9307 158.038 12.2283 158.038 13.835ZM156.1 13.1553C155.476 12.9081 155.288 12.7845 155.288 12.4755C155.351 12.1048 155.663 11.7958 156.038 11.8576C156.35 11.8576 156.663 12.043 156.913 12.2901L157.475 11.5486C157.038 11.1778 156.475 10.9307 155.913 10.9307C155.038 10.8689 154.288 11.5486 154.226 12.4137V12.4755C154.226 13.2171 154.538 13.6496 155.538 13.9586C155.788 14.0204 156.038 14.144 156.288 14.2676C156.475 14.3912 156.6 14.5765 156.6 14.8237C156.6 15.2563 156.225 15.627 155.851 15.627H155.788C155.288 15.627 154.851 15.3181 154.663 14.8855L153.976 15.5653C154.351 16.245 155.101 16.6158 155.851 16.6158C156.85 16.6776 157.663 15.936 157.725 14.9473V14.7619C157.663 14.0204 157.35 13.6496 156.1 13.1553ZM152.476 16.554H153.539V11.0543H152.476V16.554ZM147.54 11.0543H149.102H149.414C150.914 11.1161 152.101 12.3519 152.039 13.835C152.039 14.6383 151.664 15.3799 151.039 15.936C150.477 16.3686 149.789 16.6158 149.102 16.554H147.54V11.0543ZM148.915 15.6271C149.414 15.6889 149.977 15.5035 150.352 15.1945C150.727 14.8237 150.914 14.3294 150.914 13.7732C150.914 13.2789 150.727 12.7845 150.352 12.4137C149.977 12.1048 149.414 11.9194 148.915 11.9812H148.602V15.6271H148.915Z" fill="black"/>
<path fill-rule="evenodd" clip-rule="evenodd" d="M165.411 10.9268C163.849 10.9268 162.536 12.1626 162.536 13.7693C162.536 15.3142 163.786 16.6119 165.411 16.6737C167.035 16.7354 168.285 15.4378 168.348 13.8311C168.285 12.2244 167.035 10.9268 165.411 10.9268V10.9268Z" fill="#FD6020"/>
<rect x="51.0814" y="0.5" width="39.2556" height="26.6038" rx="5.5" fill="white" stroke="#D9D9D9"/>
<path fill-rule="evenodd" clip-rule="evenodd" d="M70.9968 19.7334C69.6263 20.9161 67.8485 21.63 65.9059 21.63C61.5714 21.63 58.0575 18.0754 58.0575 13.6905C58.0575 9.30563 61.5714 5.75098 65.9059 5.75098C67.8485 5.75098 69.6263 6.46494 70.9968 7.64762C72.3673 6.46494 74.1451 5.75098 76.0877 5.75098C80.4222 5.75098 83.9361 9.30563 83.9361 13.6905C83.9361 18.0754 80.4222 21.63 76.0877 21.63C74.1451 21.63 72.3673 20.9161 70.9968 19.7334Z" fill="#ED0006"/>
<path fill-rule="evenodd" clip-rule="evenodd" d="M70.9968 19.7334C72.6843 18.2771 73.7544 16.1102 73.7544 13.6905C73.7544 11.2708 72.6843 9.10388 70.9968 7.64762C72.3673 6.46494 74.1451 5.75098 76.0877 5.75098C80.4223 5.75098 83.9361 9.30563 83.9361 13.6905C83.9361 18.0754 80.4223 21.63 76.0877 21.63C74.1451 21.63 72.3673 20.9161 70.9968 19.7334Z" fill="#F9A000"/>
<path fill-rule="evenodd" clip-rule="evenodd" d="M70.9968 7.64746C72.6843 9.10372 73.7543 11.2706 73.7543 13.6903C73.7543 16.11 72.6843 18.2769 70.9968 19.7332C69.3093 18.2769 68.2393 16.11 68.2393 13.6903C68.2393 11.2706 69.3093 9.10372 70.9968 7.64746Z" fill="#FF5E00"/>
</g>
<defs>
<filter id="filter0_d_9_217" x="0" y="0" width="188" height="35.6035" filterUnits="userSpaceOnUse" color-interpolation-filters="sRGB">
<feFlood flood-opacity="0" result="BackgroundImageFix"/>
<feColorMatrix in="SourceAlpha" type="matrix" values="0 0 0 0 0 0 0 0 0 0 0 0 0 0 0 0 0 0 127 0" result="hardAlpha"/>
<feOffset dy="4"/>
<feGaussianBlur stdDeviation="2"/>
<feComposite in2="hardAlpha" operator="out"/>
<feColorMatrix type="matrix" values="0 0 0 0 0 0 0 0 0 0 0 0 0 0 0 0 0 0 0.25 0"/>
<feBlend mode="normal" in2="BackgroundImageFix" result="effect1_dropShadow_9_217"/>
<feBlend mode="normal" in="SourceGraphic" in2="effect1_dropShadow_9_217" result="shape"/>
</filter>
</defs>
</svg>
