<svg width="65" height="66" viewBox="0 0 65 66" fill="none" xmlns="http://www.w3.org/2000/svg">
<ellipse cx="32.5" cy="33" rx="32.5" ry="33" fill="#A50C0C"/>
<g clip-path="url(#clip0_530_1116)">
<path d="M25.7657 32.245C24.2988 33.1121 23.5019 34.0816 23.3177 35.691C23.0701 37.8506 22.5652 39.9816 22.1207 42.1125C21.7556 43.8626 20.2665 44.9601 18.698 44.7169C16.9994 44.4545 15.8151 43.1395 16.085 41.3158C16.6184 37.6907 17.3709 34.1008 18.0344 30.4949C18.044 30.4437 18.0598 30.3861 18.0916 30.3477C20.8412 27.1353 23.4066 23.6286 28.1025 23.2447C29.7313 23.1135 31.3823 23.1807 33.0207 23.2319C35.3702 23.3055 36.799 25.0204 37.4213 27.2665C38.1865 30.0213 39.2469 32.7922 42.3712 33.896C44.2095 34.5455 46.0225 35.2782 47.8291 36.0173C49.5087 36.7052 50.2199 38.2282 49.7087 39.8952C49.2515 41.3894 47.6291 42.378 46.0352 41.8405C42.9395 40.7942 39.8978 39.5912 36.853 38.401C36.3481 38.2026 35.9385 37.7579 35.348 37.3259C34.9479 39.0633 34.5002 40.6887 34.2367 42.346C34.1605 42.8292 34.5288 43.4467 34.8241 43.917C37.9166 48.8731 41.0345 53.81 44.1429 58.7533C44.3969 59.1565 44.6763 59.55 44.889 59.9756C45.7717 61.7513 45.3938 63.6838 43.9809 64.7141C42.5077 65.7891 40.5868 65.6964 39.2882 64.0934C36.6815 60.881 34.2621 57.5151 31.7697 54.21C31.0363 53.2373 30.3124 52.2582 29.4678 51.1288C27.9057 55.8161 24.6004 59.2461 22.0604 63.1623C20.784 65.1268 19.3807 65.706 17.6757 65.242C15.7167 64.7109 14.5482 62.6024 15.4214 60.7594C16.1643 59.1917 17.1137 57.6815 18.1932 56.3281C20.8634 52.9877 22.5748 49.2923 23.2479 45.024C23.9146 40.7974 24.8862 36.6188 25.7625 32.2386L25.7657 32.245ZM30.5346 24.9117C26.407 24.9117 22.416 26.9946 20.0601 30.4181C19.8029 30.7956 19.6537 31.282 19.5648 31.7395C18.9806 34.7631 18.4599 37.7995 17.8503 40.8166C17.6534 41.7893 17.7455 42.5988 18.7679 42.842C19.9077 43.1139 20.3427 42.3588 20.5173 41.3222C20.9174 38.9673 21.3333 36.6124 21.8223 34.2767C21.9556 33.6368 22.2223 32.9105 22.67 32.4754C23.8448 31.3332 25.1307 30.2965 26.4261 29.2886C26.7341 29.0455 27.4961 28.8599 27.6136 29.0071C27.8866 29.3462 28.0708 29.9382 27.9882 30.3669C27.4231 33.2817 26.8611 36.2029 26.134 39.0825C25.5276 41.4885 25.9371 43.5171 27.4485 45.4976C31.3442 50.6009 35.1289 55.7905 38.9612 60.9418C39.5263 61.7001 39.9931 62.6024 40.7202 63.1463C41.1932 63.4983 42.2537 63.6071 42.6919 63.2999C43.1999 62.9415 43.5968 61.9849 43.5269 61.3418C43.4475 60.6187 42.8157 59.9468 42.3934 59.2749C39.2057 54.1972 35.9862 49.1419 32.846 44.0354C32.5127 43.4947 32.4238 42.6372 32.5539 41.9973C33.3318 38.2058 34.1192 34.4079 35.0781 30.6581C36.3449 25.7051 34.986 24.6109 30.5314 24.9117H30.5346ZM25.0354 45.1744C24.8735 45.7663 24.7592 46.1663 24.6512 46.5662C24.1464 48.4476 23.994 50.5337 23.0605 52.1687C21.4952 54.9011 19.4569 57.3615 17.5709 59.902C16.6914 61.0858 16.6469 62.6152 17.5963 63.3095C18.5393 64.0006 19.5807 63.6742 20.5015 62.3624C22.3557 59.7164 24.3083 57.128 25.9975 54.3795C26.9214 52.879 27.7374 51.1352 27.9279 49.4234C28.0295 48.5148 26.696 47.4397 26.0038 46.4478C25.7625 46.1023 25.4958 45.7759 25.0386 45.1744H25.0354ZM36.8403 30.7508C36.5704 31.8355 36.3545 32.6546 36.1671 33.4801C35.875 34.7631 36.5609 36.4332 37.7896 36.926C40.6217 38.0618 43.4856 39.1305 46.3813 40.0871C46.8131 40.2311 47.4862 39.6328 48.0482 39.3768C47.791 38.8137 47.6799 38.0362 47.2449 37.7323C46.5305 37.2331 45.6161 37.0156 44.7715 36.7244C41.587 35.627 38.3675 34.5903 36.8434 30.754L36.8403 30.7508Z" fill="white"/>
<path d="M40.898 16.0139C40.879 19.5271 38.0817 22.2915 34.6114 22.2243C31.2078 22.1603 28.382 19.2103 28.4582 15.8028C28.5344 12.4592 31.4078 9.65643 34.7416 9.67243C38.2246 9.68843 40.9171 12.4624 40.8948 16.0107L40.898 16.0139ZM34.7543 20.4293C37.1959 20.4133 39.2057 18.4232 39.2311 15.9979C39.2565 13.5087 37.2023 11.4578 34.694 11.4674C32.1952 11.4802 30.2838 13.3903 30.2711 15.8988C30.2552 18.4968 32.1825 20.4453 34.7543 20.4293Z" fill="white"/>
</g>
<defs>
<clipPath id="clip0_530_1116">
<rect width="34.7414" height="55.7586" fill="white" transform="translate(15.1293 9.67236)"/>
</clipPath>
</defs>
</svg>
