<svg width="66" height="66" viewBox="0 0 66 66" fill="none" xmlns="http://www.w3.org/2000/svg">
<circle cx="32.7699" cy="32.7699" r="32.7699" fill="#A50C0C"/>
<g clip-path="url(#clip0_5_128)">
<path d="M17.9677 22.4647C17.2989 22.4647 16.6805 22.4509 16.0627 22.47C15.724 22.4806 15.435 22.754 15.4031 23.1046C15.3692 23.4723 15.3958 23.8453 15.3958 24.2123C16.0992 24.3533 16.1557 24.4212 16.1557 25.1282C16.1557 25.9078 16.157 26.688 16.1557 27.4675C16.155 27.9473 15.9744 28.1318 15.5021 28.1344C15.0703 28.137 14.6386 28.1377 14.2068 28.1344C13.7352 28.1304 13.5639 27.9644 13.5619 27.5018C13.5585 26.6781 13.5605 25.8544 13.5605 25.0307C13.5605 24.4179 13.6622 24.3032 14.3198 24.2281C14.3198 23.9434 14.3178 23.6515 14.3198 23.3596C14.3291 22.1616 15.0936 21.4078 16.2972 21.4071C16.8372 21.4071 17.3779 21.4071 17.9691 21.4071C17.9691 20.9228 17.9425 20.4648 17.9757 20.0101C18.0176 19.4434 18.0448 18.8629 18.1909 18.3186C18.8744 15.7777 21.1567 14.129 23.9452 14.1276C30.4986 14.1257 37.052 14.1237 43.6053 14.1329C44.1666 14.1336 44.7405 14.156 45.2865 14.2719C47.9461 14.8373 49.8053 17.1305 49.8299 19.8289C49.8345 20.3422 49.8305 20.8549 49.8305 21.4078C50.3506 21.4078 50.8362 21.4361 51.3178 21.4025C52.7107 21.3037 53.5788 22.2868 53.4832 23.5408C53.4659 23.7675 53.4805 23.9968 53.4805 24.2182C54.1607 24.3237 54.2384 24.4159 54.2384 25.0795C54.2384 25.8814 54.2404 26.6827 54.2384 27.4847C54.2371 27.967 54.0664 28.1337 53.5768 28.1364C53.1232 28.1383 52.6688 28.1416 52.2152 28.1331C51.8578 28.1265 51.6512 27.9367 51.6472 27.5848C51.6366 26.6623 51.6353 25.7397 51.6459 24.8172C51.6499 24.4409 51.8399 24.3026 52.4025 24.2235C52.4025 23.8485 52.433 23.4657 52.3932 23.0907C52.358 22.756 52.1242 22.5016 51.7867 22.4819C51.1504 22.445 50.5101 22.4713 49.8305 22.4713C49.8305 22.6229 49.8305 22.7507 49.8305 22.8792C49.8305 29.4246 49.8319 35.9694 49.8286 42.5148C49.8286 43.7319 49.3111 44.686 48.2497 45.3015C47.8664 45.5236 47.4147 45.6297 46.9418 45.8082C46.9418 45.8722 46.9418 45.9908 46.9418 46.1087C46.9418 47.0642 46.9471 48.0197 46.9385 48.9752C46.9285 50.0473 46.1912 50.8031 45.1098 50.8328C44.3685 50.8532 43.6266 50.8512 42.8853 50.8367C41.7567 50.8143 41.0088 50.046 41.0055 48.9244C41.0028 47.9907 41.0055 47.0576 41.0055 46.1239V45.7522H27.0598C27.0598 45.8873 27.0598 46.0046 27.0598 46.1212C27.0598 47.0655 27.0638 48.0105 27.0578 48.9547C27.0512 50.013 26.3391 50.7807 25.2764 50.8268C24.4813 50.8618 23.6815 50.8598 22.8864 50.8275C21.8449 50.7853 21.1302 50.0143 21.1249 48.9752C21.1202 48.0309 21.1229 47.0866 21.1222 46.1417C21.1222 46.0224 21.1222 45.9031 21.1222 45.7634C20.9482 45.7377 20.7987 45.718 20.6506 45.6929C19.0651 45.4254 17.979 44.1635 17.9711 42.5655C17.9644 41.2476 17.9697 39.9297 17.9697 38.6118C17.9697 33.3513 17.9684 28.0916 17.9684 22.8311C17.9684 22.7231 17.9684 22.6156 17.9684 22.4667L17.9677 22.4647ZM33.9035 44.6768C38.1094 44.6768 42.3154 44.6781 46.5207 44.6729C46.783 44.6729 47.0574 44.6564 47.3051 44.5793C48.245 44.2874 48.7724 43.5026 48.7724 42.4324C48.7737 34.9658 48.7731 27.4998 48.7724 20.0332C48.7724 17.2168 46.7472 15.1806 43.9069 15.1767C37.1994 15.1675 30.4926 15.1675 23.7851 15.176C21.1083 15.1793 19.0285 17.2537 19.0265 19.908C19.0226 27.4181 19.0252 34.9289 19.0265 42.439C19.0265 43.8202 19.8947 44.6768 21.2849 44.6768C25.4909 44.6768 29.6968 44.6768 33.9021 44.6768H33.9035ZM22.195 45.7417C22.195 46.9028 22.1764 48.0309 22.2049 49.1577C22.2149 49.5419 22.5636 49.7831 23.0086 49.789C23.728 49.7989 24.4474 49.8008 25.1661 49.7877C25.7008 49.7778 25.9951 49.4635 25.997 48.9284C26.0004 47.9624 25.999 46.9963 25.997 46.0303C25.997 45.9367 25.9811 45.8425 25.9718 45.7417H22.1943H22.195ZM42.0842 45.7417C42.0756 45.855 42.0643 45.94 42.0643 46.025C42.063 46.9799 42.061 47.9353 42.065 48.8902C42.0676 49.5004 42.3645 49.7877 42.9896 49.791C43.6312 49.7943 44.2729 49.7929 44.9152 49.791C45.606 49.7896 45.8843 49.5175 45.8863 48.8342C45.889 47.9123 45.8863 46.9897 45.885 46.0679C45.885 45.9618 45.873 45.8557 45.8664 45.741H42.0836L42.0842 45.7417Z" fill="white"/>
<path d="M34.0535 18.8029C37.6291 18.8029 41.2047 18.8016 44.7809 18.8056C45.0453 18.8056 45.3169 18.8102 45.572 18.8702C46.3492 19.052 46.8985 19.74 46.9357 20.5386C46.9423 20.681 46.943 20.824 46.943 20.967C46.943 24.6676 46.9437 28.369 46.943 32.0697C46.943 32.6852 46.8706 32.7768 46.2542 32.9085C41.4444 33.9378 36.5762 34.268 31.6682 34.098C28.622 33.9925 25.5997 33.667 22.6087 33.0753C22.2832 33.0107 21.9584 32.9454 21.6349 32.8716C21.2576 32.786 21.1241 32.6311 21.1234 32.2562C21.1214 28.3683 21.1174 24.4805 21.1267 20.5933C21.1294 19.6411 21.8375 18.911 22.796 18.8221C22.9939 18.8036 23.1939 18.8036 23.3931 18.8036C26.9468 18.8023 30.5005 18.8029 34.0541 18.8029H34.0535ZM33.9983 19.8494V19.8507C30.3796 19.8507 26.7601 19.8507 23.1414 19.8507C22.4718 19.8507 22.1729 20.1321 22.1723 20.7792C22.1703 24.3915 22.1736 28.0039 22.1656 31.6157C22.1656 31.8522 22.2407 31.9425 22.4712 31.9781C24.0773 32.2245 25.6754 32.5336 27.2875 32.724C30.5244 33.1056 33.7752 33.1748 37.0319 33.0212C39.8988 32.8861 42.7404 32.554 45.5541 31.9893C45.8065 31.9386 45.8928 31.8483 45.8922 31.5847C45.8835 27.9947 45.8869 24.4041 45.8862 20.8141C45.8862 20.1301 45.6039 19.8494 44.9217 19.8494C41.2804 19.8494 37.639 19.8494 33.9983 19.8494Z" fill="white"/>
<path d="M34.0276 38.0172C35.3548 38.0172 36.6826 38.0159 38.0097 38.0172C38.8301 38.0178 39.305 38.4831 39.3116 39.3028C39.3183 40.1476 39.3196 40.993 39.3116 41.8378C39.3043 42.6701 38.8268 43.1353 37.9818 43.136C35.3488 43.1386 32.7164 43.1379 30.0834 43.136C29.2378 43.1353 28.7569 42.6773 28.7443 41.8444C28.7317 40.9996 28.7317 40.1542 28.7436 39.3094C28.7556 38.4712 29.2332 38.0178 30.0781 38.0172C31.3946 38.0165 32.7111 38.0172 34.027 38.0172H34.0276ZM34.0442 39.0669C32.7496 39.0669 31.4557 39.0735 30.1611 39.0616C29.8888 39.059 29.7898 39.1407 29.7945 39.4161C29.8084 40.1845 29.8071 40.9528 29.7945 41.7205C29.7905 41.9821 29.8655 42.0908 30.1492 42.0902C32.7377 42.0823 35.3269 42.0823 37.9154 42.0902C38.1765 42.0908 38.2648 42.0039 38.2608 41.7482C38.2495 40.9693 38.2469 40.1898 38.2621 39.4109C38.2675 39.1302 38.1599 39.059 37.8928 39.0616C36.6095 39.0728 35.3262 39.0669 34.0429 39.0669H34.0442Z" fill="white"/>
<path d="M46.9384 40.6022C46.9151 42.0229 45.7441 43.1636 44.3392 43.1339C42.8912 43.1029 41.7679 41.9458 41.7952 40.5119C41.8217 39.1057 43.0014 37.9888 44.4302 38.0171C45.837 38.0455 46.9616 39.2039 46.939 40.6022H46.9384ZM42.852 40.5772C42.8546 41.4035 43.5401 42.0855 44.3717 42.0882C45.1927 42.0908 45.8835 41.3995 45.8875 40.5706C45.8922 39.7508 45.1987 39.0668 44.3638 39.0682C43.5262 39.0695 42.8493 39.7449 42.8513 40.5772H42.852Z" fill="white"/>
<path d="M26.2758 40.6022C26.2525 42.0229 25.0815 43.1636 23.6766 43.1339C22.2286 43.1029 21.1053 41.9458 21.1326 40.5119C21.1591 39.1057 22.3388 37.9888 23.7676 38.0171C25.1745 38.0455 26.299 39.2039 26.2764 40.6022H26.2758ZM22.1894 40.5772C22.192 41.4035 22.8775 42.0855 23.7091 42.0882C24.5301 42.0908 25.2209 41.3995 25.2249 40.5706C25.2296 39.7508 24.5361 39.0668 23.7012 39.0682C22.8636 39.0695 22.1867 39.7449 22.1887 40.5772H22.1894Z" fill="white"/>
</g>
<defs>
<clipPath id="clip0_5_128">
<rect width="40.6799" height="36.7249" fill="white" transform="translate(13.5598 14.125)"/>
</clipPath>
</defs>
</svg>
