<svg width="66" height="66" viewBox="0 0 66 66" fill="none" xmlns="http://www.w3.org/2000/svg">
<circle cx="32.7699" cy="32.7699" r="32.7699" fill="#A50C0C"/>
<g clip-path="url(#clip0_5_129)">
<path d="M35.8025 23.3C35.8025 24.5495 35.7966 25.7099 35.8129 26.8703C35.8129 26.9699 35.9507 27.114 36.0573 27.16C37.2571 27.6682 38.4644 28.1629 39.6686 28.6592C40.664 29.0693 41.0536 29.4615 41.4609 30.4927C41.7142 30.4927 41.9838 30.4837 42.2534 30.4941C42.6015 30.5075 42.8222 30.7259 42.8237 31.0424C42.8252 31.3529 42.5956 31.6352 42.2623 31.5951C41.6935 31.5268 41.4313 31.7363 41.181 32.2622C40.6655 33.3454 39.3946 33.7599 38.2022 33.3513C38.0452 33.2978 37.8896 33.2369 37.6511 33.1478C38.1548 34.1299 38.6199 35.0332 39.0983 35.9678C41.6105 34.9842 44.0472 35.0956 46.3713 36.4804C48.1251 37.5264 49.3205 39.0463 49.9189 41.0046C51.1261 44.9553 49.2568 49.0056 45.4529 50.741C41.9438 52.3427 37.5963 50.9757 35.4959 47.6743C33.3733 44.3387 33.8443 39.2425 38.0896 36.4819C37.8704 36.0525 37.6497 35.6186 37.4008 35.1298C37.309 35.2814 37.2408 35.3883 37.1786 35.4983C35.6811 38.137 34.1791 40.7743 32.6934 43.419C32.4875 43.786 32.2372 43.945 31.8091 43.9346C30.787 43.9078 29.7635 43.9316 28.7399 43.9212C28.5133 43.9182 28.4155 43.9762 28.3904 44.2199C28.023 47.6387 25.5938 50.3948 22.2565 51.1927C17.6335 52.2966 13.009 49.0457 12.4817 44.3209C11.9944 39.9542 14.9909 36.0302 19.3014 35.4017C20.8389 35.1774 22.3187 35.4017 23.7318 36.054C23.9096 36.1357 24.0873 36.2174 24.2991 36.314C24.8324 35.4849 25.3612 34.6707 25.8796 33.8476C25.9181 33.7867 25.8989 33.6574 25.8604 33.5861C25.4723 32.8848 25.0812 32.185 24.6695 31.4971C24.6102 31.399 24.4443 31.3232 24.3214 31.3143C23.9777 31.289 23.6311 31.3143 23.286 31.3039C22.8742 31.292 22.6327 31.084 22.6224 30.7556C22.6105 30.4124 22.8579 30.1821 23.2874 30.1762C24.2236 30.1658 25.1612 30.1717 26.0989 30.1717C26.2292 30.1717 26.3581 30.1717 26.5625 30.1717C26.3388 29.9132 26.1626 29.729 26.0085 29.5269C24.7643 27.8896 24.8635 25.6445 26.3062 24.1365C27.5683 22.8171 28.8644 21.5259 30.196 20.2764C30.7352 19.7697 31.4106 19.4102 32.0416 18.9704C31.6387 18.3345 31.7706 17.6971 32.2757 17.0968C32.4742 16.8606 32.6608 16.6139 32.8623 16.3807C33.1437 16.0553 33.4711 15.9929 33.7288 16.2038C34.0028 16.4282 34.0117 16.7387 33.7421 17.0849C33.5303 17.3583 33.2977 17.6153 33.0978 17.8962C33.0208 18.0046 32.9511 18.1874 32.9926 18.2869C33.0326 18.3805 33.2237 18.4608 33.3481 18.4608C36.1951 18.4697 39.0435 18.4726 41.8905 18.4652C42.5497 18.4637 42.8652 17.9645 42.6208 17.3524C41.9483 15.666 40.6107 14.9469 38.8969 14.7567C37.7163 14.6245 36.6261 14.8518 35.607 15.4699C35.2308 15.6987 34.9079 15.6214 34.7405 15.3213C34.5613 15.0004 34.6798 14.7017 35.0797 14.4759C37.3712 13.1847 39.6523 13.2664 41.8638 14.6319C42.8592 15.2455 43.4947 16.1994 43.785 17.3464C43.9746 18.0953 43.6828 18.6896 43.1303 19.1932C42.9985 19.3136 42.8622 19.4934 42.837 19.6613C42.3719 22.8513 39.1368 24.6877 36.1758 23.4307C36.0988 23.398 36.0203 23.3743 35.8011 23.2955L35.8025 23.3ZM39.9382 37.6051C41.1321 37.1356 42.3289 37.0168 43.5317 37.2842C47.6392 38.1965 49.676 42.6152 47.6926 46.3341C47.3785 46.9225 46.8971 47.4247 46.4572 47.9373C46.2276 48.2047 45.8928 48.1839 45.6677 47.967C45.4337 47.7412 45.4277 47.4559 45.6573 47.1721C45.7432 47.0666 45.8469 46.9775 45.9373 46.8764C47.1326 45.563 47.5859 44.0208 47.2171 42.2868C46.7534 40.1072 44.9685 38.5352 42.7555 38.3034C41.9823 38.2232 41.221 38.3124 40.4729 38.6288C40.5411 38.7655 40.5944 38.8755 40.6492 38.9839C41.3069 40.2677 41.966 41.5514 42.6252 42.8351C42.6815 42.945 42.7467 43.0535 42.7837 43.1694C42.877 43.4666 42.7985 43.7132 42.5171 43.8588C42.2356 44.0044 41.9897 43.9286 41.8031 43.6761C41.7379 43.5869 41.692 43.4844 41.6402 43.3863C40.9692 42.0818 40.2996 40.7758 39.6286 39.4713C39.5753 39.3673 39.5116 39.2677 39.4509 39.1652C37.7252 40.2914 36.8453 42.4874 37.3119 44.4502C38.0333 47.4856 40.9795 49.1334 43.9554 48.1631C44.4205 48.0116 44.7315 48.1111 44.8545 48.4529C44.9759 48.7887 44.7863 49.0769 44.3257 49.2329C42.6445 49.799 41.0091 49.6905 39.4212 48.8927C35.9403 47.1424 34.9627 42.3968 37.4912 39.4371C37.9104 38.9453 38.417 38.5278 38.9013 38.0583C38.8213 37.9053 38.728 37.724 38.6332 37.5412C35.73 39.2618 34.4042 43.2734 36.1995 46.6417C37.9785 49.9773 42.1186 51.2387 45.4959 49.4766C48.8331 47.7352 50.1381 43.5304 48.3443 40.1354C46.5239 36.6914 42.5111 35.7152 39.639 37.0168C39.7323 37.2025 39.8256 37.3867 39.9367 37.6066L39.9382 37.6051ZM22.6742 38.8383C20.8774 37.8191 18.3415 38.241 16.8292 39.7892C15.1924 41.4637 14.8902 44.0059 16.093 45.9939C17.2899 47.973 19.6569 48.8986 21.8403 48.2582C24.3036 47.5361 25.4323 45.2554 25.4234 43.9301C25.2916 43.9301 25.1583 43.9301 25.025 43.9301C23.5348 43.9301 22.0447 43.9272 20.5545 43.9331C20.2864 43.9331 20.0198 43.8826 19.9517 43.6166C19.8998 43.4175 19.9783 43.1768 20.0316 42.9629C20.0598 42.85 20.1576 42.7534 20.2242 42.6494C21.0374 41.385 21.8506 40.1191 22.6742 38.8383ZM40.227 30.4927C40.0182 30.0752 39.7042 29.8983 39.359 29.7557C38.0067 29.1985 36.6557 28.6399 35.3048 28.0812C34.7123 27.8361 34.6694 27.7766 34.6798 27.1526C34.702 25.8555 34.7405 24.5584 34.7523 23.2628C34.7583 22.4783 34.1509 21.9197 33.3733 21.9553C32.6978 21.985 32.1779 22.4783 32.1527 23.196C32.089 24.973 32.0535 26.7515 32.0165 28.5299C32.0017 29.2862 32.2772 29.6844 32.9837 29.9786C33.868 30.3471 34.7538 30.714 35.6411 31.0781C36.6187 31.4807 37.5919 31.8938 38.5755 32.2771C39.2909 32.5564 40.0567 32.2325 40.1989 31.61C39.8508 31.61 39.5057 31.6189 39.162 31.607C38.8139 31.5966 38.5917 31.3782 38.5843 31.0647C38.5769 30.7334 38.8036 30.5045 39.1694 30.4941C39.5012 30.4837 39.8316 30.4927 40.2285 30.4927H40.227ZM26.6454 43.9509C26.2662 48.0978 22.1158 50.3651 18.6541 49.3414C15.5183 48.4142 13.5823 45.0133 14.437 41.798C14.8754 40.1458 15.8323 38.8636 17.3091 38.0093C19.2688 36.8786 21.2833 36.8949 23.3126 37.8473C23.4415 37.6482 23.5526 37.4744 23.6666 37.3005C21.2137 35.9143 17.795 36.2293 15.5509 38.5025C13.2949 40.7877 12.9009 44.2466 14.5895 47.022C16.1952 49.6623 19.5414 50.9089 22.4683 49.9758C25.5345 48.9996 27.1965 46.196 27.2587 43.9509H26.6469H26.6454ZM33.3289 32.1686C32.4905 32.6426 31.7395 33.0616 30.9959 33.4925C30.9233 33.5356 30.8626 33.6396 30.8418 33.7272C30.3738 35.7048 29.9057 37.6824 29.4554 39.6644C29.325 40.235 29.6924 40.7966 30.2479 40.9541C30.8641 41.1279 31.4803 40.7669 31.6462 40.0819C32.2179 37.7106 32.7749 35.3378 33.3229 32.9606C33.3748 32.7332 33.3303 32.4836 33.3303 32.1686H33.3289ZM26.6736 25.5732C26.0603 26.4766 26.1137 27.949 26.9298 28.842C28.026 30.0425 29.1976 31.1732 30.3441 32.3261C30.4019 32.3841 30.556 32.4212 30.6211 32.3856C31.2433 32.0498 31.8565 31.6947 32.4386 31.3648C30.5011 29.4184 28.5844 27.4929 26.6721 25.5732H26.6736ZM30.8803 27.9728C30.9174 27.9757 30.9529 27.9787 30.99 27.9817C30.99 26.4632 30.9751 24.9447 30.9944 23.4263C31.0122 22.1054 31.7232 21.1679 32.886 20.8811C33.1185 20.8246 33.3614 20.8098 33.6088 20.7756C33.514 20.4443 33.4296 20.1516 33.3437 19.8485C32.5127 20.0401 31.7676 20.3715 31.1647 20.9286C30.1797 21.8409 29.2391 22.8022 28.2793 23.7442C27.9919 24.0265 27.706 24.3088 27.4661 24.5451C28.6259 25.7099 29.7531 26.8406 30.8803 27.9728ZM25.2427 36.9365C27.1476 38.4446 28.2111 40.391 28.4318 42.7861H31.0359C30.8858 42.3879 30.629 42.1606 30.2656 42.1041C29.3887 41.9704 28.7829 41.4994 28.4541 40.6659C28.1978 40.0151 28.3548 39.3851 28.4926 38.7418C28.537 38.5382 28.4985 38.2752 28.4022 38.091C28.0067 37.3392 27.5727 36.6067 27.1535 35.8668C26.9698 35.5429 26.7847 35.2175 26.5817 34.8609C26.124 35.5711 25.6974 36.2323 25.2427 36.938V36.9365ZM40.5381 19.6122C40.5011 20.0416 40.6048 20.5914 39.9856 20.6166C39.2998 20.6434 39.4316 20.0416 39.3724 19.6137H37.5934C37.5934 20.5825 37.586 21.5304 37.6067 22.4783C37.6082 22.5541 37.7904 22.6834 37.897 22.6923C39.716 22.8334 41.4195 21.4457 41.6816 19.6122H40.5396H40.5381ZM36.4499 34.4879C35.7196 34.4879 35.0693 34.4969 34.4191 34.4835C34.1895 34.479 34.1095 34.5563 34.0576 34.7821C33.6592 36.522 33.2341 38.2544 32.8386 39.9958C32.6801 40.6926 32.4164 41.3077 31.7958 41.7371C31.8832 41.8916 31.9646 42.0328 32.0713 42.22C33.5362 39.6347 34.9716 37.1 36.4499 34.4894V34.4879ZM23.6385 39.4326C22.9068 40.5708 22.2046 41.6613 21.4877 42.7786H25.4664C25.2916 41.4147 24.6887 40.3315 23.6385 39.4326ZM29.7546 33.3394C29.0421 32.6248 28.4126 31.9903 27.7801 31.3589C27.746 31.3247 27.7001 31.2816 27.6601 31.2816C27.0809 31.2772 26.5032 31.2786 25.853 31.2786C26.2514 31.9829 26.5906 32.5936 26.9432 33.1953C26.9832 33.2651 27.0943 33.332 27.1743 33.3335C27.9963 33.3439 28.817 33.3394 29.7546 33.3394ZM24.2547 38.4713C25.6382 39.5991 26.407 41.0418 26.6143 42.7861H27.2928C27.0898 40.7713 26.2025 39.1697 24.6339 37.8919C24.505 38.088 24.391 38.2618 24.2532 38.4699L24.2547 38.4713ZM36.4306 22.2985V19.6137H34.4739C34.7094 20.8217 35.333 21.7013 36.4306 22.2985ZM28.968 36.7671C29.1576 35.9589 29.325 35.2427 29.4969 34.5073H27.6882C28.1148 35.2606 28.5177 35.9722 28.968 36.7671ZM36.4913 33.3261C36.2928 32.9858 36.198 32.6084 35.9625 32.4628C35.4915 32.1731 34.9405 32.0126 34.4368 31.8031V33.3246H36.4928L36.4913 33.3261Z" fill="white"/>
</g>
<defs>
<clipPath id="clip0_5_129">
<rect width="37.8549" height="37.8549" fill="white" transform="translate(12.4298 13.5596)"/>
</clipPath>
</defs>
</svg>
