<svg width="66" height="66" viewBox="0 0 66 66" fill="none" xmlns="http://www.w3.org/2000/svg">
<circle cx="33" cy="33" r="33" fill="#A50C0C"/>
<g clip-path="url(#clip0_530_1152)">
<path d="M27.06 46.6859C26.369 48.4668 25.6922 50.2118 25.0145 51.9577C24.331 53.7177 23.6434 55.477 22.9674 57.2395C22.7003 57.9347 23.1426 58.5423 23.8286 58.4438C24.185 58.392 24.3844 58.1609 24.5079 57.8412C24.7675 57.1678 25.0395 56.4985 25.2849 55.82C25.37 55.5855 25.491 55.5112 25.7372 55.5112C31.3829 55.5179 37.0286 55.5179 42.6743 55.5112C42.9247 55.5112 43.0424 55.5896 43.1275 55.8233C43.3737 56.5018 43.6407 57.1736 43.9095 57.8429C44.1164 58.3578 44.5446 58.5731 44.9969 58.4087C45.4651 58.2385 45.6462 57.7803 45.4359 57.2337C44.134 53.8663 42.8271 50.5006 41.5218 47.134C41.4626 46.9821 41.41 46.8277 41.3908 46.776C42.2212 46.2536 43.0657 45.8371 43.7726 45.2546C45.4659 43.8593 46.3088 42.0074 46.3163 39.8134C46.333 34.988 46.3655 30.1618 46.3055 25.3373C46.2679 22.3205 44.7624 20.164 42.0676 18.827C41.8365 18.7119 41.6445 18.7269 41.405 18.8321C40.4895 19.236 39.6508 19.0724 38.8763 18.449C38.7203 18.3238 38.4958 18.242 38.2946 18.2245C37.8941 18.1903 37.4893 18.2128 37.0854 18.2145C36.472 18.2178 35.917 18.2095 35.3562 18.6727C34.5609 19.3286 33.3909 19.1375 32.5838 18.459C32.4236 18.3246 32.1783 18.2345 31.968 18.2253C31.302 18.1961 30.6327 18.2011 29.9667 18.2237C29.794 18.2295 29.5928 18.3096 29.4585 18.4215C28.6665 19.0782 27.8127 19.2268 26.853 18.8329C26.6861 18.7645 26.4366 18.7494 26.2805 18.8237C23.5958 20.1056 22.0552 22.2353 22.0035 25.2113C21.9175 30.1326 21.9617 35.0565 21.9868 39.9786C22.001 42.8394 23.8887 45.4708 26.5818 46.5023C26.7237 46.5565 26.8655 46.6108 27.0617 46.6859H27.06ZM33.8565 32.8299C30.8388 32.8299 27.8211 32.8316 24.8034 32.8282C23.9605 32.8274 23.4522 32.32 23.4472 31.4813C23.4414 30.5357 23.4431 29.5902 23.4472 28.6446C23.4581 26.0509 25.4218 24.0229 28.0247 24.0021C31.8903 23.9712 35.7568 23.9712 39.6232 24.0021C42.2195 24.0229 44.1749 26.0492 44.1941 28.6538C44.2007 29.5435 44.1957 30.4339 44.1949 31.3244C44.1941 32.365 43.7342 32.8299 42.7019 32.8299C39.7534 32.8299 36.8058 32.8299 33.8574 32.8299H33.8565ZM26.056 53.8488C26.4274 52.8957 26.7721 51.9911 27.1401 51.0964C27.1752 51.0121 27.3579 50.9445 27.4723 50.9437C31.9604 50.9362 36.4486 50.9354 40.9368 50.9487C41.0678 50.9487 41.264 51.0889 41.3174 51.2116C41.5878 51.835 41.8223 52.4734 42.0668 53.1077C42.1578 53.3439 42.2404 53.5826 42.3364 53.8488H26.0552H26.056ZM27.8403 49.2621C28.1048 48.5753 28.3644 47.9485 28.583 47.3084C28.6707 47.0522 28.7867 46.9805 29.0529 46.9813C32.3735 46.9921 35.6942 46.988 39.0157 46.988C39.2485 46.988 39.4814 46.988 39.6967 46.988C39.9904 47.7541 40.2725 48.4893 40.5688 49.2613H27.8403V49.2621ZM27.8703 43.603C26.2346 43.6089 24.9177 42.3003 24.9202 40.6721C24.9227 39.064 26.2304 37.7504 27.8353 37.7437C29.4418 37.737 30.7695 39.0364 30.7921 40.6379C30.8146 42.2578 29.4944 43.5972 27.8703 43.603ZM37.6312 40.6947C37.6295 39.0548 38.9314 37.7429 40.5596 37.7437C42.1628 37.7437 43.4864 39.0598 43.493 40.6579C43.4997 42.2845 42.1836 43.603 40.5546 43.603C38.9364 43.603 37.6328 42.3062 37.6312 40.6947Z" fill="white"/>
<path d="M52.9341 31.3211C52.9341 27.5798 52.9199 23.8377 52.9449 20.0964C52.9508 19.266 52.7805 18.5016 52.4584 17.7538C51.1022 14.6059 48.7522 12.4269 45.7428 10.903C43.4478 9.74136 40.99 9.11629 38.4505 8.8075C34.907 8.37688 31.3711 8.4353 27.8635 9.13131C24.4068 9.8173 21.2464 11.1367 18.6768 13.6362C17.208 15.0649 16.1056 16.734 15.5047 18.7069C15.417 18.9948 15.3678 19.3061 15.3678 19.6065C15.3603 27.4371 15.362 35.2676 15.3628 43.0982C15.3628 43.2234 15.3586 43.3494 15.3745 43.4729C15.4237 43.8501 15.7192 44.1297 16.0964 44.1672C16.4753 44.2048 16.8349 43.997 16.9459 43.6381C17.0019 43.457 17.0127 43.2559 17.0127 43.0639C17.016 35.3169 17.0144 27.5698 17.016 19.8227C17.016 18.8329 17.5009 18.0034 17.9766 17.193C19.5631 14.4941 21.9783 12.8108 24.8458 11.7092C27.3644 10.742 29.9949 10.3322 32.6746 10.2279C36.1705 10.0919 39.6231 10.3664 42.9554 11.529C45.8212 12.5279 48.2806 14.1002 49.9981 16.6723C50.3128 17.1438 50.5756 17.6537 50.8285 18.1628C51.1598 18.8296 51.3009 19.5298 51.2984 20.2917C51.2792 27.8577 51.2858 35.4245 51.2883 42.9905C51.2883 43.1975 51.2917 43.412 51.3443 43.6089C51.4436 43.9836 51.8208 44.2089 52.2147 44.1664C52.5894 44.1255 52.8848 43.8384 52.9241 43.462C52.9399 43.3101 52.9332 43.1566 52.9332 43.0039C52.9332 39.109 52.9332 35.215 52.9332 31.3202L52.9341 31.3211Z" fill="white"/>
<path d="M41.9291 16.6641C41.9107 15.8145 41.2439 15.1861 40.386 15.2112C39.5673 15.2354 38.9406 15.9114 38.9656 16.7459C38.9898 17.5638 39.6833 18.2205 40.4887 18.1897C41.314 18.158 41.9466 17.4886 41.9291 16.6641Z" fill="white"/>
<path d="M34.1361 15.211C33.3124 15.216 32.6564 15.8753 32.6564 16.6973C32.6564 17.5068 33.3332 18.1869 34.1427 18.192C34.9681 18.197 35.6558 17.4984 35.6407 16.6706C35.6266 15.8477 34.9648 15.2068 34.1361 15.211Z" fill="white"/>
<path d="M26.3715 16.6829C26.364 17.5091 27.0108 18.1776 27.8295 18.1901C28.6398 18.2018 29.3225 17.5408 29.34 16.7263C29.3575 15.8859 28.6941 15.2091 27.8537 15.21C27.0216 15.21 26.379 15.8492 26.3715 16.6829Z" fill="white"/>
<path d="M25.7882 40.6972C25.7965 41.8405 26.7195 42.7526 27.8628 42.7485C29.0028 42.7443 29.9208 41.8188 29.9183 40.6755C29.9158 39.5154 28.9703 38.5791 27.8203 38.5974C26.682 38.6158 25.7798 39.548 25.7882 40.6963V40.6972Z" fill="white"/>
<path d="M38.4874 40.6849C38.4907 41.8266 39.4129 42.7471 40.5546 42.7488C41.687 42.7504 42.6259 41.8208 42.6359 40.6883C42.6459 39.5491 41.6795 38.5869 40.537 38.5977C39.4012 38.6086 38.484 39.5433 38.4874 40.6849Z" fill="white"/>
</g>
<defs>
<clipPath id="clip0_530_1152">
<rect width="37.5838" height="49.9267" fill="white" transform="matrix(-1 0 0 1 52.9459 8.53467)"/>
</clipPath>
</defs>
</svg>
