<svg width="66" height="66" viewBox="0 0 66 66" fill="none" xmlns="http://www.w3.org/2000/svg">
<circle cx="32.7699" cy="32.7699" r="32.7699" fill="#A50C0C"/>
<g clip-path="url(#clip0_5_127)">
<path d="M52.4384 32.1173C52.8231 32.9993 53.2365 33.8457 53.5622 34.7259C53.7286 35.1759 53.8038 35.683 53.8074 36.1669C53.8235 37.9471 53.8646 39.7326 53.7555 41.5074C53.6588 43.0983 52.7444 44.2339 51.3038 44.9071C50.9764 45.0588 50.8797 45.2249 50.8905 45.5659C50.9155 46.3819 50.903 47.1997 50.8976 48.0157C50.8851 49.7102 49.7559 50.8351 48.0666 50.8422C47.188 50.8458 46.3093 50.8458 45.4307 50.8422C43.7396 50.8368 42.6068 49.7119 42.5943 48.0193C42.5871 47.1443 42.5943 46.2677 42.5943 45.357H22.3854C22.3854 46.023 22.3943 46.6997 22.3818 47.3765C22.3729 47.8354 22.3818 48.3032 22.2959 48.7495C22.0686 49.9476 20.9985 50.8154 19.7459 50.8386C18.7777 50.8565 17.8096 50.8493 16.8415 50.8422C15.2542 50.8315 14.1125 49.7119 14.0821 48.1264C14.0642 47.2497 14.0731 46.3748 14.0821 45.4981C14.0839 45.2874 14.0534 45.1499 13.8244 45.0588C12.1584 44.4089 11.235 43.1644 11.1705 41.4038C11.1025 39.5665 11.1348 37.7221 11.2045 35.883C11.2529 34.6117 11.77 33.4707 12.4805 32.4208C12.5288 32.3494 12.5735 32.2744 12.6719 32.1191C12.2657 32.1191 11.9203 32.1226 11.5732 32.1191C10.3241 32.1048 9.61009 31.387 9.60651 30.1443C9.60651 29.7729 9.60114 29.4015 9.60651 29.0301C9.62441 28.0088 10.3545 27.2553 11.3781 27.2338C12.2711 27.2142 13.1658 27.2053 14.0588 27.2428C14.4167 27.257 14.7692 27.407 15.1701 27.5088C15.2059 27.4106 15.2667 27.2481 15.3204 27.0821C15.8913 25.3215 16.3887 23.5324 17.0491 21.8058C17.704 20.0935 19.0694 19.2186 20.9037 19.1221C21.6911 19.0811 22.482 19.0954 23.2712 19.1186C23.6058 19.1275 23.7651 19.0489 23.8564 18.699C24.1123 17.7259 24.4111 16.7635 24.7064 15.801C25.0374 14.7208 25.8373 14.128 26.9576 14.1262C30.6511 14.1226 34.3447 14.1226 38.0382 14.1262C39.1298 14.1262 39.9369 14.7244 40.2608 15.776C40.565 16.767 40.8513 17.7634 41.1466 18.7579C41.1806 18.8704 41.22 18.9793 41.2647 19.1096C42.0968 19.1096 42.9146 19.1079 43.7324 19.1096C45.9282 19.1168 47.4653 20.2345 48.1346 22.3147C48.6697 23.9788 49.1976 25.6429 49.7309 27.3088C49.7577 27.391 49.7935 27.4695 49.7828 27.4427C50.3787 27.366 50.9227 27.2624 51.4703 27.2338C52.1539 27.1981 52.841 27.2178 53.5246 27.2285C54.6269 27.2463 55.3571 27.9891 55.366 29.0926C55.3696 29.464 55.3678 29.8354 55.366 30.2068C55.3589 31.3602 54.6359 32.0887 53.4691 32.1137C53.1041 32.1208 52.739 32.1137 52.4366 32.1137L52.4384 32.1173ZM50.3554 32.0369C49.9384 32.7851 49.5859 33.4707 49.1833 34.1242C48.9453 34.5117 48.6715 34.8991 48.3368 35.2009C47.5387 35.9223 46.5563 36.1544 45.4915 36.1526C38.5947 36.1437 31.698 36.149 24.8012 36.149C24.7117 36.149 24.6223 36.1508 24.5328 36.1472C24.1176 36.124 23.8295 35.8598 23.8224 35.4991C23.8152 35.1598 24.0783 34.8724 24.463 34.8188C24.6097 34.7974 24.7601 34.8081 24.9086 34.8081C27.872 34.8081 30.8372 34.8081 33.8007 34.8081C37.7036 34.8081 41.6065 34.8045 45.5094 34.8099C46.3147 34.8099 47.12 34.6813 47.6085 34.0278C48.2134 33.2154 48.6679 32.2923 49.271 31.2745C48.6661 31.2192 48.2044 31.1388 47.7445 31.1388C37.5712 31.1317 27.396 31.1334 17.2227 31.1334C17.0151 31.1334 16.8021 31.1227 16.5981 31.1549C16.344 31.1942 16.0971 31.2727 15.8 31.3459C16.1973 32.0601 16.5856 32.6922 16.9131 33.3547C17.4213 34.3849 18.2767 34.792 19.3719 34.8081C19.9982 34.817 20.6227 34.8009 21.2491 34.8134C21.7465 34.8241 22.0293 35.0813 22.0311 35.4866C22.0329 35.8865 21.7412 36.1437 21.2508 36.149C20.5655 36.1562 19.8801 36.1651 19.1947 36.1437C17.6808 36.0937 16.5158 35.4544 15.7839 34.0956C15.4815 33.5332 15.1683 32.9779 14.8551 32.4226C14.7925 32.3119 14.7138 32.2119 14.6297 32.0905C14.5348 32.1512 14.465 32.1798 14.4131 32.228C13.3555 33.1993 12.6451 34.3885 12.5628 35.8205C12.4608 37.6274 12.4984 39.4415 12.4894 41.2521C12.4894 41.5003 12.5395 41.7556 12.6057 41.9966C12.9636 43.2644 13.989 43.9822 15.4349 43.9822C26.7106 43.9822 37.9881 43.9822 49.2638 43.9822C49.398 43.9822 49.5322 43.9822 49.6664 43.975C51.1374 43.8732 52.3203 42.8198 52.4133 41.361C52.5118 39.8219 52.4724 38.2756 52.4831 36.7311C52.4885 35.8598 52.3274 35.0206 51.9642 34.2242C51.5937 33.41 51.1177 32.6726 50.35 32.0405L50.3554 32.0369ZM15.8412 29.8693C16.2152 29.8407 16.523 29.7943 16.8308 29.7996C17.1171 29.805 17.2352 29.6997 17.3211 29.4229C17.9206 27.4999 18.5415 25.584 19.1535 23.6663C19.6045 22.254 20.2827 21.7558 21.7734 21.7558C26.5245 21.7558 31.2757 21.7558 36.0268 21.7558C36.2058 21.7558 36.3847 21.7594 36.5601 21.7844C36.9108 21.8362 37.122 22.0951 37.0737 22.4004C37.0379 22.6307 36.8249 22.8771 36.6227 23.0235C36.4778 23.1289 36.2219 23.0967 36.0161 23.0967C31.2649 23.1003 26.5138 23.0985 21.7626 23.1003C20.8786 23.1003 20.6943 23.2396 20.4241 24.0877C19.8729 25.8233 19.3235 27.5606 18.7724 29.2961C18.7258 29.4461 18.6811 29.5961 18.6346 29.7514H46.3523C45.7241 27.7784 45.1103 25.8465 44.4912 23.9163C44.2818 23.2664 44.0492 23.1021 43.3459 23.1003C42.1988 23.095 41.0517 23.1021 39.9047 23.095C39.6989 23.095 39.4394 23.1146 39.3016 23.0057C39.1191 22.8593 38.9222 22.5879 38.933 22.3825C38.9437 22.1772 39.1799 21.954 39.3696 21.804C39.4752 21.7201 39.6846 21.7558 39.8474 21.7558C40.9945 21.7522 42.1416 21.7505 43.2886 21.7558C44.6755 21.7612 45.3841 22.2879 45.81 23.6199C46.4274 25.5519 47.043 27.4856 47.6676 29.4158C47.7123 29.5515 47.8179 29.7514 47.9217 29.7693C48.3064 29.8336 48.7037 29.8354 49.1242 29.8639C49.024 29.5497 48.9363 29.2676 48.8468 28.9872C48.1686 26.8571 47.5029 24.7216 46.805 22.5968C46.3612 21.2451 45.3018 20.4559 43.9507 20.4542C36.3095 20.447 28.6701 20.4488 21.0289 20.4542C19.7512 20.4542 18.6632 21.1773 18.2552 22.3879C17.4231 24.8573 16.6518 27.3445 15.8429 29.8693H15.8412ZM39.8367 19.0864C39.5342 18.0651 39.2515 17.0866 38.9509 16.1117C38.8166 15.6778 38.4963 15.4636 38.0418 15.4636C34.3339 15.4636 30.6279 15.4636 26.92 15.4636C26.5084 15.4636 26.1809 15.6439 26.0539 16.0403C25.7353 17.0384 25.4454 18.0455 25.1341 19.0846H39.8367V19.0864ZM15.4278 45.3427C15.4278 46.3355 15.4045 47.2836 15.4349 48.2282C15.46 48.971 16.0255 49.4888 16.7753 49.5013C17.7416 49.5155 18.7079 49.5138 19.6743 49.5013C20.3955 49.4923 20.9717 49.0334 21.011 48.3282C21.0665 47.3425 21.0254 46.3516 21.0254 45.341H15.4278V45.3427ZM43.9454 45.332C43.9454 46.3498 43.9078 47.3265 43.9579 48.2996C43.9955 49.0227 44.5717 49.4923 45.3144 49.5013C46.2664 49.512 47.2184 49.512 48.1686 49.5013C48.9649 49.4923 49.5125 48.9585 49.5465 48.1692C49.5626 47.7854 49.5501 47.3979 49.5519 47.0122C49.5519 46.4551 49.5519 45.898 49.5519 45.332H43.9454ZM12.6648 30.7746C13.0656 30.7746 13.4665 30.7871 13.8673 30.771C14.27 30.7549 14.4847 30.5228 14.4883 30.1318C14.4919 29.7907 14.4919 29.4515 14.4865 29.1104C14.4793 28.7551 14.304 28.5641 13.9335 28.5658C13.1175 28.5694 12.3015 28.5658 11.4837 28.5676C11.1204 28.5694 10.9433 28.7605 10.9469 29.1247C10.9504 29.4658 10.9433 29.805 10.9469 30.146C10.954 30.6264 11.0954 30.7656 11.5947 30.7728C11.9508 30.7781 12.3069 30.7728 12.663 30.7728L12.6648 30.7746ZM52.2827 28.5676C51.8818 28.5676 51.481 28.5748 51.0801 28.5658C50.6632 28.5551 50.4842 28.7623 50.486 29.1604C50.486 29.4854 50.5021 29.8121 50.4807 30.1371C50.4538 30.5674 50.7276 30.7478 51.0676 30.7621C51.8818 30.796 52.6996 30.7799 53.5157 30.7692C53.8503 30.7638 54.0293 30.5764 54.0257 30.23C54.0221 29.8604 54.0221 29.4908 54.0257 29.1194C54.0293 28.7533 53.8467 28.5712 53.4835 28.5676C53.0826 28.5641 52.6818 28.5676 52.2809 28.5676H52.2827Z" fill="white"/>
<path d="M32.4875 42.5548C30.1647 42.5548 27.8437 42.5566 25.5209 42.5548C24.1287 42.5548 23.42 41.6406 23.7618 40.2961C23.9229 39.6658 24.0804 39.0319 24.2593 38.407C24.4723 37.666 25.0073 37.241 25.7714 37.1785C25.92 37.166 26.0685 37.166 26.217 37.166C30.3991 37.166 34.583 37.166 38.7651 37.166C40.0356 37.166 40.517 37.5392 40.8427 38.7766C40.9894 39.3354 41.1344 39.8943 41.2686 40.455C41.5442 41.6138 40.8248 42.5476 39.6312 42.553C37.2493 42.5637 34.8675 42.5565 32.4857 42.5565L32.4875 42.5548ZM32.4696 41.2156C34.778 41.2156 37.0865 41.2156 39.395 41.2156C39.998 41.2156 40.0571 41.1424 39.9139 40.5746C39.7922 40.0872 39.6383 39.6033 39.5506 39.1087C39.4665 38.6409 39.2411 38.4945 38.7651 38.4962C35.2791 38.5159 31.7949 38.507 28.309 38.507C27.5502 38.507 26.7897 38.5123 26.0309 38.5052C25.7321 38.5016 25.571 38.6141 25.503 38.9212C25.3813 39.4694 25.2203 40.0104 25.0807 40.555C24.9375 41.1156 25.0145 41.2156 25.5871 41.2156C27.8813 41.2156 30.1736 41.2156 32.4678 41.2156H32.4696Z" fill="white"/>
<path d="M48.8812 36.8885C49.8743 36.876 50.506 37.6295 50.2984 38.4883C50.1105 39.2651 49.8761 40.0293 49.665 40.8006C49.4967 41.4166 49.0726 41.7541 48.457 41.8237C46.8769 42.0023 45.295 42.1737 43.7113 42.3201C42.7091 42.413 42.0041 41.5005 42.3656 40.5596C42.6805 39.7454 43.0563 38.9544 43.4249 38.1616C43.62 37.7438 43.9725 37.4938 44.4306 37.4349C45.9481 37.2403 47.4692 37.0599 48.8812 36.8867V36.8885ZM48.9688 38.2901C48.8543 38.2794 48.7953 38.2634 48.7398 38.2705C47.4299 38.4223 46.1182 38.5723 44.8082 38.7365C44.7152 38.749 44.5953 38.8472 44.5541 38.9365C44.2499 39.59 43.9618 40.2525 43.6701 40.9077C43.7148 40.931 43.7274 40.9435 43.7381 40.9417C45.227 40.7953 46.7176 40.6488 48.2065 40.4935C48.2745 40.4864 48.3711 40.4078 48.389 40.3453C48.5877 39.6704 48.772 38.9937 48.967 38.2901H48.9688Z" fill="white"/>
<path d="M21.337 42.3327C19.7247 42.1631 18.1123 42.0042 16.5035 41.8203C15.9023 41.7506 15.5014 41.3971 15.3332 40.8097C15.1256 40.0847 14.9073 39.3616 14.723 38.6295C14.4528 37.5528 15.1542 36.7904 16.2745 36.9208C17.6327 37.0779 18.991 37.2368 20.3492 37.3957C20.9165 37.4618 21.371 37.6921 21.6144 38.2421C21.9436 38.9866 22.2962 39.7223 22.604 40.4758C22.9995 41.4417 22.3534 42.3702 21.3388 42.3327H21.337ZM16.0132 38.2367C16.219 38.9706 16.3854 39.6133 16.5859 40.2454C16.6216 40.3561 16.7916 40.4811 16.9151 40.499C17.6488 40.6025 18.3879 40.6793 19.1252 40.7579C19.8446 40.8347 20.5639 40.9007 21.3495 40.9775C21.2189 40.6704 21.0847 40.4383 21.0185 40.1865C20.7375 39.1205 20.1613 38.5385 18.9534 38.5599C18.0014 38.5759 17.0475 38.3599 16.015 38.2385L16.0132 38.2367Z" fill="white"/>
<path d="M34.2251 16.9106C34.3826 16.6428 34.4899 16.3892 34.6617 16.1928C34.744 16.0982 34.9463 16.1089 35.0948 16.0714C35.1127 16.2089 35.2004 16.4071 35.1395 16.4731C34.6062 17.0624 34.5937 17.6177 35.1503 18.2015C35.2147 18.2694 35.1395 18.4711 35.127 18.6104C34.9695 18.5658 34.7906 18.5515 34.6581 18.4658C34.5579 18.4015 34.5186 18.2444 34.4488 18.1301C34.3808 18.0194 34.3074 17.9123 34.2161 17.7712C34.0533 18.039 33.9298 18.2962 33.7509 18.5086C33.6757 18.5979 33.4842 18.5926 33.3464 18.6301C33.3196 18.4926 33.291 18.3569 33.2695 18.2194C33.2659 18.198 33.2945 18.1658 33.3142 18.1444C33.8242 17.6194 33.8654 17.0945 33.3411 16.5463C33.2086 16.4089 33.0977 16.2196 33.3572 16.0678C33.6166 15.916 33.733 16.0714 33.8439 16.2731C33.9567 16.4785 34.0837 16.6785 34.2233 16.9124L34.2251 16.9106Z" fill="white"/>
<path d="M32.0758 18.1407C31.7108 18.155 31.2705 17.9425 31.1793 18.5532C31.1721 18.5996 30.961 18.6692 30.8876 18.6353C30.7927 18.5924 30.6621 18.4353 30.6818 18.3639C30.8822 17.6372 31.0916 16.9123 31.3421 16.2016C31.4441 15.9106 31.9559 15.9034 32.0615 16.1927C32.3174 16.8998 32.5304 17.6247 32.7344 18.3496C32.7558 18.4228 32.6288 18.5942 32.5375 18.6264C32.4516 18.6567 32.287 18.5924 32.219 18.5157C32.1385 18.4264 32.1241 18.2764 32.0758 18.1389V18.1407ZM31.4459 17.6943C31.666 17.6782 31.802 17.6675 31.9613 17.655C31.8772 17.364 31.8092 17.1229 31.7412 16.8819C31.7143 16.8819 31.6893 16.8819 31.6624 16.8801C31.5962 17.1283 31.53 17.3765 31.4459 17.6943Z" fill="white"/>
<path d="M29.209 16.5443C29.014 16.5353 28.878 16.5639 28.7813 16.5139C28.6847 16.4639 28.5863 16.3443 28.572 16.2425C28.563 16.1747 28.6972 16.0211 28.7706 16.0193C29.2591 15.9979 29.7495 15.9997 30.2362 16.0193C30.3078 16.0229 30.4241 16.1693 30.4259 16.2514C30.4295 16.3389 30.34 16.4746 30.2559 16.5086C30.1414 16.5585 29.9946 16.5335 29.7978 16.5443C29.7978 17.0996 29.7978 17.6549 29.7978 18.2102C29.7978 18.4155 29.8371 18.6512 29.524 18.6637C29.1822 18.678 29.2072 18.428 29.2072 18.203C29.2072 17.6602 29.2072 17.1156 29.2072 16.5425L29.209 16.5443Z" fill="white"/>
<path d="M36.4261 17.3624C36.4261 17.6731 36.4511 17.9873 36.4136 18.2945C36.3975 18.4266 36.2686 18.6266 36.1595 18.6498C35.8892 18.7087 35.866 18.4891 35.8678 18.2784C35.8713 17.641 35.8534 17.0035 35.8821 16.3679C35.8874 16.2464 36.061 16.134 36.1559 16.0161C36.2453 16.1393 36.3975 16.2536 36.4136 16.3839C36.4511 16.7053 36.4261 17.0339 36.4261 17.3606V17.3624Z" fill="white"/>
</g>
<defs>
<clipPath id="clip0_5_127">
<rect width="45.7649" height="36.7249" fill="white" transform="translate(9.60498 14.125)"/>
</clipPath>
</defs>
</svg>
